<mxfile host="app.diagrams.net" modified="2022-10-07T07:45:26.315Z" agent="5.0 (Windows NT 10.0; Win64; x64) AppleWebKit/537.36 (KHTML, like Gecko) Chrome/106.0.0.0 Safari/537.36" version="18.1.3" etag="LodI1zZR5egtMj8WW5ua" type="github">
  <diagram id="xaTnQ6V2i8z_Jt67rTKC" name="第 1 页">
    <mxGraphModel dx="1918" dy="935" grid="0" gridSize="10" guides="1" tooltips="1" connect="1" arrows="1" fold="1" page="1" pageScale="1" pageWidth="827" pageHeight="1169" background="#ffffff" math="0" shadow="0">
      <root>
        <mxCell id="0" />
        <mxCell id="1" parent="0" />
        <mxCell id="6" style="edgeStyle=none;html=1;fontColor=#000000;strokeColor=#000000;" parent="1" source="2" target="3" edge="1">
          <mxGeometry relative="1" as="geometry" />
        </mxCell>
        <mxCell id="2" value="&lt;font color=&quot;#000000&quot;&gt;采购合同&lt;/font&gt;" style="rounded=0;whiteSpace=wrap;html=1;strokeColor=#000000;fillColor=#FFFFFF;" parent="1" vertex="1">
          <mxGeometry x="152" y="115" width="120" height="60" as="geometry" />
        </mxCell>
        <mxCell id="8" style="edgeStyle=none;html=1;fontColor=#000000;strokeColor=#000000;" parent="1" source="3" target="7" edge="1">
          <mxGeometry relative="1" as="geometry" />
        </mxCell>
        <mxCell id="3" value="&lt;font color=&quot;#000000&quot;&gt;原材料进场&lt;/font&gt;" style="rounded=0;whiteSpace=wrap;html=1;strokeColor=#000000;fillColor=#FFFFFF;" parent="1" vertex="1">
          <mxGeometry x="152" y="309" width="120" height="60" as="geometry" />
        </mxCell>
        <mxCell id="10" style="edgeStyle=none;html=1;fontColor=#000000;strokeColor=#000000;" parent="1" source="7" target="9" edge="1">
          <mxGeometry relative="1" as="geometry" />
        </mxCell>
        <mxCell id="7" value="原材料检测" style="rounded=0;whiteSpace=wrap;html=1;fontColor=#000000;strokeColor=#000000;fillColor=#FFFFFF;" parent="1" vertex="1">
          <mxGeometry x="152" y="509" width="120" height="60" as="geometry" />
        </mxCell>
        <mxCell id="66" style="edgeStyle=none;html=1;fontColor=#000000;strokeColor=#000000;" parent="1" source="9" target="38" edge="1">
          <mxGeometry relative="1" as="geometry" />
        </mxCell>
        <mxCell id="9" value="原材料检测报告" style="rounded=0;whiteSpace=wrap;html=1;fontColor=#000000;strokeColor=#000000;fillColor=#FFFFFF;" parent="1" vertex="1">
          <mxGeometry x="152" y="730" width="120" height="60" as="geometry" />
        </mxCell>
        <mxCell id="13" style="edgeStyle=none;html=1;fontColor=#000000;strokeColor=#000000;" parent="1" source="11" target="12" edge="1">
          <mxGeometry relative="1" as="geometry" />
        </mxCell>
        <mxCell id="11" value="销售合同" style="rounded=0;whiteSpace=wrap;html=1;fontColor=#000000;strokeColor=#000000;fillColor=#FFFFFF;" parent="1" vertex="1">
          <mxGeometry x="411" y="115" width="120" height="60" as="geometry" />
        </mxCell>
        <mxCell id="18" style="edgeStyle=none;html=1;fontColor=#000000;strokeColor=#000000;" parent="1" source="12" target="15" edge="1">
          <mxGeometry relative="1" as="geometry" />
        </mxCell>
        <mxCell id="12" value="工地下单" style="rounded=0;whiteSpace=wrap;html=1;fontColor=#000000;strokeColor=#000000;fillColor=#FFFFFF;" parent="1" vertex="1">
          <mxGeometry x="411" y="228" width="120" height="60" as="geometry" />
        </mxCell>
        <mxCell id="57" style="edgeStyle=orthogonalEdgeStyle;html=1;fontColor=#000000;strokeColor=#000000;" parent="1" source="15" target="16" edge="1">
          <mxGeometry relative="1" as="geometry" />
        </mxCell>
        <mxCell id="VgrqbEpPmM0_tDoHrXSY-69" style="edgeStyle=orthogonalEdgeStyle;rounded=0;orthogonalLoop=1;jettySize=auto;html=1;entryX=1;entryY=0.75;entryDx=0;entryDy=0;" edge="1" parent="1" source="15" target="12">
          <mxGeometry relative="1" as="geometry">
            <Array as="points">
              <mxPoint x="593" y="379" />
              <mxPoint x="593" y="273" />
            </Array>
          </mxGeometry>
        </mxCell>
        <mxCell id="15" value="搅拌楼初审" style="rhombus;whiteSpace=wrap;html=1;fontColor=#000000;strokeColor=#000000;fillColor=#FFFFFF;" parent="1" vertex="1">
          <mxGeometry x="431" y="339" width="80" height="80" as="geometry" />
        </mxCell>
        <mxCell id="64" style="edgeStyle=none;html=1;fontColor=#000000;strokeColor=#000000;" parent="1" source="16" target="17" edge="1">
          <mxGeometry relative="1" as="geometry" />
        </mxCell>
        <mxCell id="VgrqbEpPmM0_tDoHrXSY-70" style="edgeStyle=orthogonalEdgeStyle;rounded=0;orthogonalLoop=1;jettySize=auto;html=1;entryX=1;entryY=0.5;entryDx=0;entryDy=0;" edge="1" parent="1" source="16" target="12">
          <mxGeometry relative="1" as="geometry">
            <Array as="points">
              <mxPoint x="631" y="503" />
              <mxPoint x="631" y="258" />
            </Array>
          </mxGeometry>
        </mxCell>
        <mxCell id="16" value="工地审核" style="rhombus;whiteSpace=wrap;html=1;fontColor=#000000;strokeColor=#000000;fillColor=#FFFFFF;" parent="1" vertex="1">
          <mxGeometry x="431" y="463" width="80" height="80" as="geometry" />
        </mxCell>
        <mxCell id="67" style="edgeStyle=none;html=1;fontColor=#000000;strokeColor=#000000;" parent="1" source="17" target="43" edge="1">
          <mxGeometry relative="1" as="geometry" />
        </mxCell>
        <mxCell id="VgrqbEpPmM0_tDoHrXSY-71" style="edgeStyle=orthogonalEdgeStyle;rounded=0;orthogonalLoop=1;jettySize=auto;html=1;entryX=1;entryY=0.25;entryDx=0;entryDy=0;" edge="1" parent="1" source="17" target="12">
          <mxGeometry relative="1" as="geometry">
            <Array as="points">
              <mxPoint x="692" y="651" />
              <mxPoint x="692" y="243" />
            </Array>
          </mxGeometry>
        </mxCell>
        <mxCell id="17" value="搅拌楼二审" style="rhombus;whiteSpace=wrap;html=1;fontColor=#000000;strokeColor=#000000;fillColor=#FFFFFF;" parent="1" vertex="1">
          <mxGeometry x="428" y="609" width="80" height="80" as="geometry" />
        </mxCell>
        <mxCell id="21" value="通过" style="text;html=1;strokeColor=none;fillColor=none;align=center;verticalAlign=middle;whiteSpace=wrap;rounded=0;fontColor=#000000;" parent="1" vertex="1">
          <mxGeometry x="471" y="422" width="53" height="30" as="geometry" />
        </mxCell>
        <mxCell id="26" value="拒绝" style="text;html=1;strokeColor=none;fillColor=none;align=center;verticalAlign=middle;whiteSpace=wrap;rounded=0;fontColor=#000000;" parent="1" vertex="1">
          <mxGeometry x="538" y="475" width="60" height="30" as="geometry" />
        </mxCell>
        <mxCell id="27" value="拒绝" style="text;html=1;strokeColor=none;fillColor=none;align=center;verticalAlign=middle;whiteSpace=wrap;rounded=0;fontColor=#000000;" parent="1" vertex="1">
          <mxGeometry x="546" y="618" width="60" height="30" as="geometry" />
        </mxCell>
        <mxCell id="28" value="拒绝" style="text;html=1;strokeColor=none;fillColor=none;align=center;verticalAlign=middle;whiteSpace=wrap;rounded=0;fontColor=#000000;" parent="1" vertex="1">
          <mxGeometry x="520" y="343" width="60" height="30" as="geometry" />
        </mxCell>
        <mxCell id="49" style="edgeStyle=none;html=1;fontColor=#CC0000;strokeColor=#000000;" parent="1" source="34" target="48" edge="1">
          <mxGeometry relative="1" as="geometry" />
        </mxCell>
        <mxCell id="34" value="添加送货单" style="rounded=0;whiteSpace=wrap;html=1;fontColor=#000000;strokeColor=#000000;fillColor=#FFFFFF;" parent="1" vertex="1">
          <mxGeometry x="408" y="864" width="120" height="60" as="geometry" />
        </mxCell>
        <mxCell id="69" style="edgeStyle=none;html=1;fontColor=#000000;strokeColor=#000000;" parent="1" target="34" edge="1">
          <mxGeometry relative="1" as="geometry">
            <mxPoint x="641" y="893.9999999999998" as="sourcePoint" />
          </mxGeometry>
        </mxCell>
        <mxCell id="42" style="edgeStyle=none;html=1;fontColor=#000000;strokeColor=#000000;" parent="1" source="38" target="34" edge="1">
          <mxGeometry relative="1" as="geometry" />
        </mxCell>
        <mxCell id="38" value="质量证明书" style="rounded=0;whiteSpace=wrap;html=1;fontColor=#000000;strokeColor=#000000;fillColor=#FFFFFF;" parent="1" vertex="1">
          <mxGeometry x="152" y="864" width="120" height="60" as="geometry" />
        </mxCell>
        <mxCell id="68" style="edgeStyle=none;html=1;fontColor=#000000;strokeColor=#000000;" parent="1" source="43" target="34" edge="1">
          <mxGeometry relative="1" as="geometry" />
        </mxCell>
        <mxCell id="43" value="生成订单" style="rounded=0;whiteSpace=wrap;html=1;fontColor=#000000;strokeColor=#000000;fillColor=#FFFFFF;" parent="1" vertex="1">
          <mxGeometry x="408" y="736" width="120" height="60" as="geometry" />
        </mxCell>
        <mxCell id="48" value="&lt;font color=&quot;#000000&quot;&gt;工地签收&lt;/font&gt;" style="rounded=0;whiteSpace=wrap;html=1;fontColor=#CC0000;strokeColor=#000000;fillColor=#FFFFFF;" parent="1" vertex="1">
          <mxGeometry x="408" y="1018" width="120" height="60" as="geometry" />
        </mxCell>
        <mxCell id="22" value="通过" style="text;html=1;strokeColor=none;fillColor=none;align=center;verticalAlign=middle;whiteSpace=wrap;rounded=0;fontColor=#000000;" parent="1" vertex="1">
          <mxGeometry x="474" y="557" width="60" height="30" as="geometry" />
        </mxCell>
        <mxCell id="VgrqbEpPmM0_tDoHrXSY-74" value="关联点" style="swimlane;horizontal=0;startSize=23;strokeColor=#FF3333;" vertex="1" parent="1">
          <mxGeometry x="62" y="831" width="745" height="132" as="geometry">
            <mxRectangle x="41" y="76" width="24" height="139" as="alternateBounds" />
          </mxGeometry>
        </mxCell>
        <mxCell id="VgrqbEpPmM0_tDoHrXSY-75" value="下料系统数据" style="rounded=0;whiteSpace=wrap;html=1;fontColor=#000000;strokeColor=#000000;fillColor=#FFFFFF;" vertex="1" parent="VgrqbEpPmM0_tDoHrXSY-74">
          <mxGeometry x="580" y="29" width="120" height="60" as="geometry" />
        </mxCell>
      </root>
    </mxGraphModel>
  </diagram>
</mxfile>
